<svg width="48" height="48" viewBox="0 0 48 48" fill="none" xmlns="http://www.w3.org/2000/svg">
<g clip-path="url(#clip0_30_43915)">
<mask id="mask0_30_43915" style="mask-type:luminance" maskUnits="userSpaceOnUse" x="12" y="12" width="24" height="24">
<path d="M15.796 16.5629C13.7184 18.6403 12.6421 21.1606 12.6421 24.331C12.6421 27.5012 13.6234 30.1161 15.7008 32.1938C17.7784 34.2712 20.3935 35.9079 23.5639 35.9079C26.7341 35.9079 29.7762 34.6979 31.8535 32.6205C33.931 30.543 35.3335 27.5012 35.3335 24.331C35.3335 21.1606 33.2002 18.8495 31.1227 16.772C29.0453 14.6944 26.7341 12.0552 23.5639 12.0552C20.3935 12.0552 17.8735 14.4854 15.796 16.5629ZM16.6579 25.4434C16.6579 21.8498 19.5698 18.9379 23.1635 18.9379C26.7549 18.9379 29.6688 21.8498 29.6688 25.4434C29.6688 29.035 26.7549 31.9488 23.1635 31.9488C19.5698 31.9488 16.6579 29.035 16.6579 25.4434Z" fill="white"/>
</mask>
<g mask="url(#mask0_30_43915)">
<path fill-rule="evenodd" clip-rule="evenodd" d="M15.796 16.5629C13.7184 18.6403 12.6421 21.1606 12.6421 24.331C12.6421 27.5012 13.6234 30.1161 15.7008 32.1938C17.7784 34.2712 20.3935 35.9079 23.5639 35.9079C26.7341 35.9079 29.7762 34.6979 31.8535 32.6205C33.931 30.543 35.3335 27.5012 35.3335 24.331C35.3335 21.1606 33.2002 18.8495 31.1227 16.772C29.0453 14.6944 26.7341 12.0552 23.5639 12.0552C20.3935 12.0552 17.8735 14.4854 15.796 16.5629ZM16.6579 25.4434C16.6579 21.8498 19.5698 18.9379 23.1635 18.9379C26.7549 18.9379 29.6688 21.8498 29.6688 25.4434C29.6688 29.035 26.7549 31.9488 23.1635 31.9488C19.5698 31.9488 16.6579 29.035 16.6579 25.4434Z" fill="url(#paint0_linear_30_43915)"/>
</g>
</g>
<defs>
<linearGradient id="paint0_linear_30_43915" x1="35.3221" y1="36.214" x2="12.3436" y2="12.8097" gradientUnits="userSpaceOnUse">
<stop stop-color="#FF33FF"/>
<stop offset="1" stop-color="#00FFFF"/>
</linearGradient>
<clipPath id="clip0_30_43915">
<rect width="24" height="24" fill="white" transform="translate(12 12)"/>
</clipPath>
</defs>
</svg>
